# xmcd
#
# Track frame offsets:
#	150
#	27142
#	49162
#	89493
#	133406
#	167914
#	188218
#	209268
#
# Disc length: 3421 seconds
#
# Revision: 1
# Processed by: cddbd v1.5.2PL0 Copyright (c) Steve Scherf et al.
# Submitted via: audiograbber 1.83.01
#
DISCID=720d5b08
DTITLE=Aun - Motorsleep
DYEAR=2009
DGENRE=Electronic
TTITLE0=Motorsleep
TTITLE1=Protection
TTITLE2=Erzot
TTITLE3=With Bows Bent
TTITLE4=Unworlds
TTITLE5=Tongueless Vigils
TTITLE6=Neiges
TTITLE7=Then Spring
EXTD=
EXTT0=
EXTT1=
EXTT2=
EXTT3=
EXTT4=
EXTT5=
EXTT6=
EXTT7=
PLAYORDER=
